<svg width="230" height="42" viewBox="0 0 230 42" fill="none" xmlns="http://www.w3.org/2000/svg">
<path d="M32.6241 17.4437V42.001H39.8274V18.2941H53.239V11.9313H38.1209L32.6241 17.4437Z" fill="#F47735"/>
<path d="M189.168 35.6543H177.454V18.2941H189.168L193.089 21.6978L197.319 17.4621L191.804 11.9313H175.752L170.253 17.4437V36.7751L175.469 42.001H192.087L197.381 36.6995L193.007 32.3193L189.168 35.6543Z" fill="#F47735"/>
<path d="M89.9005 18.2941H92.9131V42.001H100.24V11.9313H89.9005V18.2941Z" fill="#F47735"/>
<path d="M230 29.0118V17.5423L224.401 11.9313H207.665L202.168 17.4437V36.7751L207.382 41.9987H224.684L230 36.6742V36.6307L229.024 35.6543L225.535 32.1589L222.047 35.6543H209.369V29.0118H230V29.0118ZM209.369 18.2918H222.783V23.1762H209.369V18.2918Z" fill="#F47735"/>
<path d="M110.344 11.9313L105.027 17.2558V17.2993L106.007 18.2757L109.495 21.7712L112.981 18.2757H125.658V24.9182H110.458L105.03 30.3504V36.3877L110.63 41.9987H132.864V17.1549L127.651 11.9313H110.348H110.344ZM125.656 35.6382H112.244V30.7538H125.656V35.6382Z" fill="#F47735"/>
<path d="M137.647 11.9313V42.001H144.85V18.2941H158.264V42.001H165.468V17.4437L159.968 11.9313H137.647Z" fill="#F47735"/>
<path d="M20.6171 35.6543H7.2033V18.2941H20.6171V11.9313H5.50141L0 17.4437V36.7751L5.21776 42.001H22.5203L27.8365 36.672V18.2941H20.6171V35.6543Z" fill="#F47735"/>
<path d="M78.3005 11.9303H63.1848L57.6833 17.4427V36.7741L62.9011 41.9977H80.2037L85.5198 36.671V0H78.2982V11.9303H78.3005ZM78.3005 35.6533H64.8889V18.2931H78.3005V35.6556V35.6533Z" fill="#F47735"/>
</svg>
