<svg width="25" height="25" viewBox="0 0 25 25" fill="none" xmlns="http://www.w3.org/2000/svg">
<path fill-rule="evenodd" clip-rule="evenodd" d="M17.6844 25V15.5733H21.2344L21.7542 11.4548H17.6844V8.83198C17.6815 8.55729 17.7095 8.28313 17.7678 8.01469C17.8157 7.78541 17.9161 7.57036 18.0611 7.38643C18.2266 7.19951 18.4378 7.05871 18.6741 6.97778C19.0095 6.86445 19.3626 6.8122 19.7165 6.82349H21.8932V3.1554C21.7042 3.12343 21.3178 3.08729 20.734 3.05254C20.1502 3.0178 19.483 2.99278 18.7199 2.99278C17.9888 2.98455 17.2619 3.105 16.5724 3.34861C15.9476 3.5714 15.3786 3.92706 14.9045 4.39107C14.4211 4.87239 14.0479 5.45284 13.8106 6.09238C13.5373 6.84284 13.4049 7.63731 13.42 8.43584V11.4659H9.8673V15.5844H13.42V25H3C1.34315 25 0 23.6569 0 22V3C0 1.34315 1.34315 0 3 0H22C23.6569 0 25 1.34315 25 3V22C25 23.6569 23.6569 25 22 25H17.6844Z" fill="white"/>
</svg>
