<svg width="30" height="25" viewBox="0 0 30 25" fill="none" xmlns="http://www.w3.org/2000/svg">
<path fill-rule="evenodd" clip-rule="evenodd" d="M9.32619 24.4433C20.452 24.4433 26.5059 15.2811 26.5059 7.26362V6.44472C27.6503 5.57476 28.6461 4.52502 29.4545 3.33635C28.3573 3.81355 27.2019 4.14368 26.0182 4.31816C27.235 3.55404 28.1575 2.40073 28.6356 1.0458C27.4527 1.70431 26.186 2.19971 24.8702 2.51852C24.3165 1.89491 23.6358 1.39702 22.8737 1.05832C22.1117 0.719629 21.2859 0.547972 20.452 0.554888C18.8542 0.579649 17.3287 1.22541 16.1987 2.3554C15.0687 3.48539 14.423 5.01086 14.3982 6.60871C14.3621 7.05185 14.4191 7.49763 14.5654 7.91745C12.1571 7.80177 9.80133 7.17261 7.65602 6.07214C5.51071 4.97166 3.62543 3.4253 2.12655 1.53671C1.58834 2.48411 1.30646 3.55547 1.30873 4.64508C1.33057 5.63374 1.57769 6.60438 2.03127 7.48312C2.48485 8.36186 3.13293 9.12553 3.92619 9.71601C2.9427 9.69632 1.98237 9.41395 1.14474 8.89818V8.89818C1.14309 10.2996 1.63372 11.657 2.53097 12.7335C3.42821 13.81 4.67507 14.5372 6.05383 14.788C5.5209 14.9319 4.96798 14.9873 4.4171 14.952C4.0279 14.9782 3.63753 14.9223 3.27129 14.788C3.6714 16.0007 4.43628 17.0601 5.46135 17.8216C6.48643 18.5831 7.72167 19.0094 8.9982 19.0422C6.84735 20.7221 4.20075 21.6425 1.47165 21.6597C0.975542 21.6868 0.47836 21.6321 0 21.4978C2.70754 23.4641 5.98046 24.4977 9.32619 24.4433" fill="white"/>
</svg>
